<svg width="155" height="57" viewBox="0 0 155 57" fill="none" xmlns="http://www.w3.org/2000/svg">
<path d="M148.47 56.5303C148.763 56.8232 149.237 56.8232 149.53 56.5303L154.303 51.7574C154.596 51.4645 154.596 50.9896 154.303 50.6967C154.01 50.4038 153.536 50.4038 153.243 50.6967L149 54.9393L144.757 50.6967C144.464 50.4038 143.99 50.4038 143.697 50.6967C143.404 50.9896 143.404 51.4645 143.697 51.7574L148.47 56.5303ZM0 1.75H137V0.25H0V1.75ZM148.25 13V56H149.75V13H148.25ZM137 1.75C143.213 1.75 148.25 6.7868 148.25 13H149.75C149.75 5.95837 144.042 0.25 137 0.25V1.75Z" fill="url(#paint0_linear_4904_1592)"/>
<defs>
<linearGradient id="paint0_linear_4904_1592" x1="74.5" y1="56" x2="19.5" y2="1" gradientUnits="userSpaceOnUse">
<stop stop-color="#1D63FF"/>
<stop offset="1" stop-color="#1D63FF" stop-opacity="0"/>
</linearGradient>
</defs>
</svg>
